<svg width="237" height="56" viewBox="0 0 237 56" fill="none" xmlns="http://www.w3.org/2000/svg">
<path d="M27.824 36.04L22 20.168H26.288L30.32 32.168L34.352 20.168H38.64L32.784 36.04H27.824Z" fill="#F64920"/>
<path d="M43.6315 17.704C42.8848 17.704 42.2662 17.48 41.7755 17.032C41.3062 16.584 41.0715 16.0187 41.0715 15.336C41.0715 14.6533 41.3062 14.0987 41.7755 13.672C42.2662 13.224 42.8848 13 43.6315 13C44.3782 13 44.9862 13.224 45.4555 13.672C45.9462 14.0987 46.1915 14.6533 46.1915 15.336C46.1915 16.0187 45.9462 16.584 45.4555 17.032C44.9862 17.48 44.3782 17.704 43.6315 17.704ZM41.5835 36.04V20.168H45.6795V36.04H41.5835Z" fill="#F64920"/>
<path d="M57.4507 36.424C55.9574 36.424 54.6241 36.0613 53.4508 35.336C52.2774 34.6107 51.3494 33.6187 50.6667 32.36C49.9841 31.1013 49.6427 29.672 49.6427 28.072C49.6427 26.472 49.9841 25.0533 50.6667 23.816C51.3494 22.5573 52.2774 21.576 53.4508 20.872C54.6241 20.1467 55.9574 19.784 57.4507 19.784C58.6454 19.784 59.6908 20.008 60.5868 20.456C61.4827 20.904 62.2081 21.5333 62.7627 22.344V13H66.8587V36.04H63.2108L62.7627 33.768C62.2507 34.472 61.5681 35.0907 60.7147 35.624C59.8827 36.1573 58.7947 36.424 57.4507 36.424ZM58.3148 32.84C59.6374 32.84 60.7147 32.4027 61.5467 31.528C62.4001 30.632 62.8268 29.4907 62.8268 28.104C62.8268 26.7173 62.4001 25.5867 61.5467 24.712C60.7147 23.816 59.6374 23.368 58.3148 23.368C57.0134 23.368 55.9361 23.8053 55.0827 24.68C54.2294 25.5547 53.8027 26.6853 53.8027 28.072C53.8027 29.4587 54.2294 30.6 55.0827 31.496C55.9361 32.392 57.0134 32.84 58.3148 32.84Z" fill="#F64920"/>
<path d="M78.9417 36.424C77.3418 36.424 75.9231 36.0827 74.6857 35.4C73.4484 34.7173 72.4777 33.7573 71.7738 32.52C71.0698 31.2827 70.7177 29.8533 70.7177 28.232C70.7177 26.5893 71.0591 25.128 71.7417 23.848C72.4457 22.568 73.4058 21.576 74.6217 20.872C75.8591 20.1467 77.3097 19.784 78.9737 19.784C80.5311 19.784 81.9071 20.1253 83.1017 20.808C84.2964 21.4907 85.2244 22.4293 85.8857 23.624C86.5684 24.7973 86.9098 26.1093 86.9098 27.56C86.9098 27.7947 86.8991 28.04 86.8777 28.296C86.8777 28.552 86.8671 28.8187 86.8457 29.096H74.7817C74.8671 30.3333 75.2937 31.304 76.0617 32.008C76.8511 32.712 77.8004 33.064 78.9097 33.064C79.7417 33.064 80.4351 32.8827 80.9897 32.52C81.5658 32.136 81.9924 31.6453 82.2697 31.048H86.4297C86.1311 32.0507 85.6297 32.968 84.9258 33.8C84.2431 34.6107 83.3897 35.2507 82.3657 35.72C81.3631 36.1893 80.2217 36.424 78.9417 36.424ZM78.9737 23.112C77.9711 23.112 77.0858 23.4 76.3177 23.976C75.5497 24.5307 75.0591 25.384 74.8457 26.536H82.7497C82.6857 25.4907 82.3017 24.6587 81.5977 24.04C80.8937 23.4213 80.0191 23.112 78.9737 23.112Z" fill="#F64920"/>
<path d="M98.1708 36.424C96.6348 36.424 95.2481 36.072 94.0107 35.368C92.7947 34.664 91.8241 33.6933 91.0988 32.456C90.3948 31.1973 90.0428 29.7467 90.0428 28.104C90.0428 26.4613 90.4054 25.0213 91.1308 23.784C91.8561 22.5253 92.8268 21.544 94.0428 20.84C95.2801 20.136 96.6667 19.784 98.2028 19.784C99.7174 19.784 101.083 20.136 102.299 20.84C103.536 21.544 104.507 22.5253 105.211 23.784C105.936 25.0213 106.299 26.4613 106.299 28.104C106.299 29.7467 105.936 31.1973 105.211 32.456C104.507 33.6933 103.536 34.664 102.299 35.368C101.061 36.072 99.6854 36.424 98.1708 36.424ZM98.1708 32.872C99.2374 32.872 100.165 32.4773 100.955 31.688C101.744 30.8773 102.139 29.6827 102.139 28.104C102.139 26.5253 101.744 25.3413 100.955 24.552C100.165 23.7413 99.2481 23.336 98.2028 23.336C97.1148 23.336 96.1761 23.7413 95.3868 24.552C94.6188 25.3413 94.2348 26.5253 94.2348 28.104C94.2348 29.6827 94.6188 30.8773 95.3868 31.688C96.1761 32.4773 97.1041 32.872 98.1708 32.872Z" fill="#F64920"/>
<path d="M119.569 36.424C118.374 36.424 117.329 36.2 116.433 35.752C115.537 35.304 114.812 34.6747 114.257 33.864L113.809 36.04H110.161V13H114.257V22.44C114.769 21.736 115.441 21.1173 116.273 20.584C117.126 20.0507 118.225 19.784 119.569 19.784C121.062 19.784 122.396 20.1467 123.569 20.872C124.742 21.5973 125.67 22.5893 126.353 23.848C127.036 25.1067 127.377 26.536 127.377 28.136C127.377 29.736 127.036 31.1653 126.353 32.424C125.67 33.6613 124.742 34.6427 123.569 35.368C122.396 36.072 121.062 36.424 119.569 36.424ZM118.705 32.84C120.006 32.84 121.084 32.4027 121.937 31.528C122.79 30.6533 123.217 29.5227 123.217 28.136C123.217 26.7493 122.79 25.608 121.937 24.712C121.084 23.816 120.006 23.368 118.705 23.368C117.382 23.368 116.294 23.816 115.441 24.712C114.609 25.5867 114.193 26.7173 114.193 28.104C114.193 29.4907 114.609 30.632 115.441 31.528C116.294 32.4027 117.382 32.84 118.705 32.84Z" fill="#F64920"/>
<path d="M138.948 36.424C137.348 36.424 135.929 36.0827 134.692 35.4C133.455 34.7173 132.484 33.7573 131.78 32.52C131.076 31.2827 130.724 29.8533 130.724 28.232C130.724 26.5893 131.065 25.128 131.748 23.848C132.452 22.568 133.412 21.576 134.628 20.872C135.865 20.1467 137.316 19.784 138.98 19.784C140.537 19.784 141.913 20.1253 143.108 20.808C144.303 21.4907 145.231 22.4293 145.892 23.624C146.575 24.7973 146.916 26.1093 146.916 27.56C146.916 27.7947 146.905 28.04 146.884 28.296C146.884 28.552 146.873 28.8187 146.852 29.096H134.788C134.873 30.3333 135.3 31.304 136.068 32.008C136.857 32.712 137.807 33.064 138.916 33.064C139.748 33.064 140.441 32.8827 140.996 32.52C141.572 32.136 141.999 31.6453 142.276 31.048H146.436C146.137 32.0507 145.636 32.968 144.932 33.8C144.249 34.6107 143.396 35.2507 142.372 35.72C141.369 36.1893 140.228 36.424 138.948 36.424ZM138.98 23.112C137.977 23.112 137.092 23.4 136.324 23.976C135.556 24.5307 135.065 25.384 134.852 26.536H142.756C142.692 25.4907 142.308 24.6587 141.604 24.04C140.9 23.4213 140.025 23.112 138.98 23.112Z" fill="#F64920"/>
<path d="M150.561 36.04V13H154.657V36.04H150.561Z" fill="#F64920"/>
<path d="M164.514 36.424C163.149 36.424 162.029 36.2107 161.154 35.784C160.28 35.336 159.629 34.7493 159.202 34.024C158.776 33.2987 158.562 32.4987 158.562 31.624C158.562 30.152 159.138 28.9573 160.29 28.04C161.442 27.1227 163.17 26.664 165.474 26.664H169.506V26.28C169.506 25.192 169.197 24.392 168.578 23.88C167.96 23.368 167.192 23.112 166.274 23.112C165.442 23.112 164.717 23.3147 164.098 23.72C163.48 24.104 163.096 24.68 162.946 25.448H158.946C159.053 24.296 159.437 23.2933 160.098 22.44C160.781 21.5867 161.656 20.936 162.722 20.488C163.789 20.0187 164.984 19.784 166.306 19.784C168.568 19.784 170.349 20.3493 171.65 21.48C172.952 22.6107 173.602 24.2107 173.602 26.28V36.04H170.114L169.73 33.48C169.261 34.3333 168.6 35.0373 167.746 35.592C166.914 36.1467 165.837 36.424 164.514 36.424ZM165.442 33.224C166.616 33.224 167.522 32.84 168.162 32.072C168.824 31.304 169.24 30.3547 169.41 29.224H165.922C164.834 29.224 164.056 29.4267 163.586 29.832C163.117 30.216 162.882 30.696 162.882 31.272C162.882 31.8907 163.117 32.3707 163.586 32.712C164.056 33.0533 164.674 33.224 165.442 33.224Z" fill="#F64920"/>
<path d="M179.983 17.704C179.236 17.704 178.618 17.48 178.127 17.032C177.658 16.584 177.423 16.0187 177.423 15.336C177.423 14.6533 177.658 14.0987 178.127 13.672C178.618 13.224 179.236 13 179.983 13C180.73 13 181.338 13.224 181.807 13.672C182.298 14.0987 182.543 14.6533 182.543 15.336C182.543 16.0187 182.298 16.584 181.807 17.032C181.338 17.48 180.73 17.704 179.983 17.704ZM174.703 43.08V39.592H175.951C176.655 39.592 177.156 39.4533 177.455 39.176C177.754 38.8987 177.903 38.4293 177.903 37.768V20.168H181.999V37.768C181.999 39.688 181.508 41.0533 180.527 41.864C179.567 42.6747 178.255 43.08 176.591 43.08H174.703Z" fill="#F64920"/>
<path d="M191.945 36.424C190.58 36.424 189.46 36.2107 188.585 35.784C187.711 35.336 187.06 34.7493 186.633 34.024C186.207 33.2987 185.993 32.4987 185.993 31.624C185.993 30.152 186.57 28.9573 187.721 28.04C188.873 27.1227 190.602 26.664 192.906 26.664H196.938V26.28C196.938 25.192 196.628 24.392 196.01 23.88C195.391 23.368 194.623 23.112 193.706 23.112C192.874 23.112 192.148 23.3147 191.529 23.72C190.911 24.104 190.527 24.68 190.378 25.448H186.378C186.484 24.296 186.868 23.2933 187.529 22.44C188.212 21.5867 189.087 20.936 190.154 20.488C191.22 20.0187 192.415 19.784 193.738 19.784C195.999 19.784 197.78 20.3493 199.081 21.48C200.383 22.6107 201.034 24.2107 201.034 26.28V36.04H197.546L197.161 33.48C196.692 34.3333 196.031 35.0373 195.178 35.592C194.346 36.1467 193.268 36.424 191.945 36.424ZM192.874 33.224C194.047 33.224 194.954 32.84 195.594 32.072C196.255 31.304 196.671 30.3547 196.842 29.224H193.354C192.266 29.224 191.487 29.4267 191.018 29.832C190.548 30.216 190.314 30.696 190.314 31.272C190.314 31.8907 190.548 32.3707 191.018 32.712C191.487 33.0533 192.105 33.224 192.874 33.224Z" fill="#F64920"/>
<path d="M205.142 36.04V20.168H208.79L209.174 23.144C209.75 22.12 210.529 21.3093 211.51 20.712C212.513 20.0933 213.686 19.784 215.03 19.784V24.104H213.878C212.982 24.104 212.182 24.2427 211.478 24.52C210.774 24.7973 210.22 25.2773 209.814 25.96C209.43 26.6427 209.238 27.592 209.238 28.808V36.04H205.142Z" fill="#F64920"/>
<path fill-rule="evenodd" clip-rule="evenodd" d="M41.7755 17.032C42.2662 17.48 42.8848 17.704 43.6315 17.704C44.3782 17.704 44.9862 17.48 45.4555 17.032C45.9462 16.584 46.1915 16.0187 46.1915 15.336C46.1915 14.6533 45.9462 14.0987 45.4555 13.672C44.9862 13.224 44.3782 13 43.6315 13C42.8848 13 42.2662 13.224 41.7755 13.672C41.3062 14.0987 41.0715 14.6533 41.0715 15.336C41.0715 16.0187 41.3062 16.584 41.7755 17.032ZM41.5835 20.168V36.04H45.6795V20.168H41.5835ZM22 20.168L27.824 36.04H32.784L38.64 20.168H34.352L30.32 32.168L26.288 20.168H22ZM57.4507 36.424C55.9574 36.424 54.6241 36.0613 53.4508 35.336C52.2774 34.6107 51.3494 33.6187 50.6667 32.36C49.9841 31.1013 49.6427 29.672 49.6427 28.072C49.6427 26.472 49.9841 25.0533 50.6667 23.816C51.3494 22.5573 52.2774 21.576 53.4508 20.872C54.6241 20.1467 55.9574 19.784 57.4507 19.784C58.6454 19.784 59.6908 20.008 60.5868 20.456C61.4827 20.904 62.2081 21.5333 62.7627 22.344V13H66.8587V36.04H63.2108L62.7627 33.768C62.2507 34.472 61.5681 35.0907 60.7147 35.624C59.8827 36.1573 58.7947 36.424 57.4507 36.424ZM58.3148 32.84C59.6374 32.84 60.7147 32.4027 61.5467 31.528C62.4001 30.632 62.8268 29.4907 62.8268 28.104C62.8268 26.7173 62.4001 25.5867 61.5467 24.712C60.7147 23.816 59.6374 23.368 58.3148 23.368C57.0134 23.368 55.9361 23.8053 55.0827 24.68C54.2294 25.5547 53.8027 26.6853 53.8027 28.072C53.8027 29.4587 54.2294 30.6 55.0827 31.496C55.9361 32.392 57.0134 32.84 58.3148 32.84ZM74.6857 35.4C75.9231 36.0827 77.3418 36.424 78.9417 36.424C80.2217 36.424 81.3631 36.1893 82.3657 35.72C83.3897 35.2507 84.2431 34.6107 84.9258 33.8C85.6297 32.968 86.1311 32.0507 86.4297 31.048H82.2697C81.9924 31.6453 81.5658 32.136 80.9897 32.52C80.4351 32.8827 79.7417 33.064 78.9097 33.064C77.8004 33.064 76.8511 32.712 76.0617 32.008C75.2937 31.304 74.8671 30.3333 74.7817 29.096H86.8457C86.8671 28.8187 86.8777 28.552 86.8777 28.296C86.8991 28.04 86.9098 27.7947 86.9098 27.56C86.9098 26.1093 86.5684 24.7973 85.8857 23.624C85.2244 22.4293 84.2964 21.4907 83.1017 20.808C81.9071 20.1253 80.5311 19.784 78.9737 19.784C77.3097 19.784 75.8591 20.1467 74.6217 20.872C73.4058 21.576 72.4457 22.568 71.7417 23.848C71.0591 25.128 70.7177 26.5893 70.7177 28.232C70.7177 29.8533 71.0698 31.2827 71.7738 32.52C72.4777 33.7573 73.4484 34.7173 74.6857 35.4ZM76.3177 23.976C77.0858 23.4 77.9711 23.112 78.9737 23.112C80.0191 23.112 80.8937 23.4213 81.5977 24.04C82.3017 24.6587 82.6857 25.4907 82.7497 26.536H74.8457C75.0591 25.384 75.5497 24.5307 76.3177 23.976ZM98.1708 36.424C96.6348 36.424 95.2481 36.072 94.0107 35.368C92.7947 34.664 91.8241 33.6933 91.0988 32.456C90.3948 31.1973 90.0428 29.7467 90.0428 28.104C90.0428 26.4613 90.4054 25.0213 91.1308 23.784C91.8561 22.5253 92.8268 21.544 94.0428 20.84C95.2801 20.136 96.6667 19.784 98.2028 19.784C99.7174 19.784 101.083 20.136 102.299 20.84C103.536 21.544 104.507 22.5253 105.211 23.784C105.936 25.0213 106.299 26.4613 106.299 28.104C106.299 29.7467 105.936 31.1973 105.211 32.456C104.507 33.6933 103.536 34.664 102.299 35.368C101.061 36.072 99.6854 36.424 98.1708 36.424ZM98.1708 32.872C99.2374 32.872 100.165 32.4773 100.955 31.688C101.744 30.8773 102.139 29.6827 102.139 28.104C102.139 26.5253 101.744 25.3413 100.955 24.552C100.165 23.7413 99.2481 23.336 98.2028 23.336C97.1148 23.336 96.1761 23.7413 95.3868 24.552C94.6188 25.3413 94.2348 26.5253 94.2348 28.104C94.2348 29.6827 94.6188 30.8773 95.3868 31.688C96.1761 32.4773 97.1041 32.872 98.1708 32.872ZM127.377 28.1069C124.118 30.4506 121.201 33.239 118.713 36.3832C117.868 36.3001 117.108 36.0897 116.433 35.752C115.537 35.304 114.812 34.6747 114.257 33.864L113.809 36.04H110.161V13H114.257V22.44C114.769 21.736 115.441 21.1173 116.273 20.584C117.126 20.0507 118.225 19.784 119.569 19.784C121.062 19.784 122.396 20.1467 123.569 20.872C124.742 21.5973 125.67 22.5893 126.353 23.848C127.032 25.099 127.373 26.5187 127.377 28.1069ZM143.414 20.9923C138.991 21.9389 134.819 23.5659 131.015 25.7584C131.185 25.0821 131.429 24.4453 131.748 23.848C132.452 22.568 133.412 21.576 134.628 20.872C135.865 20.1467 137.316 19.784 138.98 19.784C140.537 19.784 141.913 20.1253 143.108 20.808C143.212 20.8675 143.314 20.9289 143.414 20.9923ZM154.657 20.0953C153.928 20.0586 153.194 20.04 152.456 20.04C151.821 20.04 151.189 20.0537 150.561 20.081V13H154.657V20.0953ZM173.576 25.5752C169.91 23.5042 165.91 21.9557 161.676 21.0308C162.001 20.8252 162.35 20.6443 162.722 20.488C163.789 20.0187 164.984 19.784 166.306 19.784C168.568 19.784 170.349 20.3493 171.65 21.48C172.8 22.4788 173.442 23.8439 173.576 25.5752ZM181.999 31.7954C180.707 30.5732 179.339 29.4303 177.903 28.3744V20.168H181.999V31.7954ZM121.937 31.528C121.084 32.4027 120.006 32.84 118.705 32.84C117.382 32.84 116.294 32.4027 115.441 31.528C114.609 30.632 114.193 29.4907 114.193 28.104C114.193 26.7173 114.609 25.5867 115.441 24.712C116.294 23.816 117.382 23.368 118.705 23.368C120.006 23.368 121.084 23.816 121.937 24.712C122.79 25.608 123.217 26.7493 123.217 28.136C123.217 29.5227 122.79 30.6533 121.937 31.528ZM178.127 17.032C178.618 17.48 179.236 17.704 179.983 17.704C180.73 17.704 181.338 17.48 181.807 17.032C182.298 16.584 182.543 16.0187 182.543 15.336C182.543 14.6533 182.298 14.0987 181.807 13.672C181.338 13.224 180.73 13 179.983 13C179.236 13 178.618 13.224 178.127 13.672C177.658 14.0987 177.423 14.6533 177.423 15.336C177.423 16.0187 177.658 16.584 178.127 17.032ZM191.945 36.424C190.58 36.424 189.46 36.2107 188.585 35.784C187.711 35.336 187.06 34.7493 186.633 34.024C186.207 33.2987 185.993 32.4987 185.993 31.624C185.993 30.152 186.57 28.9573 187.721 28.04C188.873 27.1227 190.602 26.664 192.906 26.664H196.938V26.28C196.938 25.192 196.628 24.392 196.01 23.88C195.391 23.368 194.623 23.112 193.706 23.112C192.874 23.112 192.148 23.3147 191.529 23.72C190.911 24.104 190.527 24.68 190.378 25.448H186.378C186.484 24.296 186.868 23.2933 187.529 22.44C188.212 21.5867 189.087 20.936 190.154 20.488C191.22 20.0187 192.415 19.784 193.738 19.784C195.999 19.784 197.78 20.3493 199.081 21.48C200.383 22.6107 201.034 24.2107 201.034 26.28V36.04H197.546L197.161 33.48C196.692 34.3333 196.031 35.0373 195.178 35.592C194.346 36.1467 193.268 36.424 191.945 36.424ZM192.874 33.224C194.047 33.224 194.954 32.84 195.594 32.072C196.255 31.304 196.671 30.3547 196.842 29.224H193.354C192.266 29.224 191.487 29.4267 191.018 29.832C190.548 30.216 190.314 30.696 190.314 31.272C190.314 31.8907 190.548 32.3707 191.018 32.712C191.487 33.0533 192.105 33.224 192.874 33.224ZM208.79 20.168H205.142V36.04H209.238V28.808C209.238 27.592 209.43 26.6427 209.814 25.96C210.22 25.2773 210.774 24.7973 211.478 24.52C212.182 24.2427 212.982 24.104 213.878 24.104H215.03V19.784C213.686 19.784 212.513 20.0933 211.51 20.712C210.529 21.3093 209.75 22.12 209.174 23.144L208.79 20.168Z" fill="#FFBD3A"/>
</svg>
